<svg width="158" height="134" viewBox="0 0 158 134" fill="none" xmlns="http://www.w3.org/2000/svg">
<path d="M48.1278 93.1017C48.1278 94.8477 47.7478 96.5614 46.9918 98.2427C46.2438 99.9241 45.2478 101.44 43.9998 102.786C42.7518 104.123 41.3278 105.223 39.7278 106.084C38.1278 106.936 36.4798 107.409 34.7838 107.506C34.7518 108.088 34.7238 108.828 34.7038 109.721C34.6918 110.606 34.6398 111.532 34.5438 112.502C34.4478 113.472 34.3078 114.442 34.1278 115.412C33.9558 116.382 33.6998 117.255 33.3598 118.031C33.0278 118.807 32.5958 119.437 32.0638 119.922C31.5398 120.407 30.8958 120.65 30.1278 120.65C29.2318 120.65 28.5158 120.347 27.9838 119.744C27.4598 119.15 27.0598 118.435 26.7838 117.594C26.5158 116.754 26.3358 115.877 26.2398 114.959C26.1438 114.034 26.0798 113.245 26.0478 112.599C25.9838 111.661 25.9398 110.74 25.9198 109.834C25.9078 108.929 25.9038 108.007 25.9038 107.07C25.9038 106.649 25.9038 105.869 25.9038 104.726C25.9038 103.574 25.9078 102.264 25.9198 100.797C25.9398 99.3218 25.9678 97.786 25.9998 96.1896C26.0318 94.585 26.0798 93.0977 26.1438 91.7276C26.2078 90.3493 26.2758 89.1732 26.3518 88.2032C26.4358 87.2332 26.5438 86.6674 26.6718 86.5057C26.7038 86.4734 26.7998 86.4047 26.9598 86.2956C27.1198 86.1783 27.2958 86.0652 27.4878 85.9561C27.6798 85.8388 27.8558 85.7297 28.0158 85.6327C28.1758 85.5357 28.2878 85.4711 28.3518 85.4387C29.8238 84.5981 31.4398 83.8706 33.1998 83.2562C34.9598 82.6419 36.7038 82.3347 38.4318 82.3347C39.9038 82.3347 41.2358 82.6378 42.4318 83.2401C43.6358 83.8342 44.6598 84.6263 45.5038 85.6166C46.3558 86.5987 47.0078 87.7465 47.4558 89.0601C47.9038 90.3655 48.1278 91.7114 48.1278 93.1017ZM39.8238 94.2172C39.8238 93.5706 39.6678 93.0047 39.3598 92.5197C39.0598 92.0347 38.5598 91.7922 37.8558 91.7922C37.2478 91.7922 36.6398 91.9175 36.0318 92.1641C35.4238 92.4025 34.8638 92.6491 34.3518 92.9077C34.4478 94.0394 34.5318 95.1387 34.6078 96.2057C34.6918 97.2727 34.7038 98.3721 34.6398 99.5037C35.1518 99.2451 35.7118 98.95 36.3198 98.6146C36.9278 98.271 37.4878 97.8871 37.9998 97.4667C38.5118 97.0464 38.9438 96.5735 39.2958 96.0441C39.6478 95.5065 39.8238 94.8962 39.8238 94.2172Z" fill="white"/>
<path d="M70.2079 111.483C70.2079 112.098 70.0479 112.696 69.7279 113.278C69.4079 113.827 68.6559 114.474 67.4719 115.218C66.2879 115.961 64.9759 116.669 63.5359 117.336C62.0959 117.994 60.7039 118.56 59.3599 119.033C58.0159 119.494 57.0239 119.728 56.3839 119.728C55.9359 119.728 55.4079 119.619 54.7999 119.405C54.1919 119.199 53.5839 118.936 52.9759 118.613C52.3679 118.289 51.8119 117.918 51.3119 117.497C50.8199 117.077 50.4639 116.673 50.2399 116.285C50.1119 116.058 49.9879 115.606 49.8719 114.927C49.7639 114.248 49.6679 113.456 49.5839 112.55C49.5079 111.645 49.4399 110.687 49.3759 109.673C49.3119 108.65 49.2519 107.68 49.1999 106.763C49.1559 105.837 49.1239 105.017 49.1039 104.305C49.0919 103.594 49.0879 103.077 49.0879 102.753C49.0879 101.557 49.1239 100.183 49.1999 98.6307C49.2839 97.0787 49.4399 95.5227 49.6639 93.9586C49.8879 92.3864 50.2119 90.8829 50.6399 89.4481C51.0759 88.0052 51.6639 86.7806 52.3999 85.7782C52.6239 85.4872 53.0719 85.1801 53.7439 84.8567C54.4159 84.5334 55.2039 84.2262 56.1119 83.9352C57.0279 83.6442 58.0159 83.3694 59.0719 83.1107C60.1279 82.8521 61.1399 82.6379 62.1119 82.4641C63.0919 82.2822 63.9839 82.1367 64.7839 82.0276C65.5839 81.9104 66.1919 81.8497 66.6079 81.8497C67.0879 81.8497 67.5399 81.9589 67.9679 82.1731C68.4039 82.3792 68.7719 82.6581 69.0719 83.0137C69.3799 83.3694 69.6199 83.7695 69.7919 84.2101C69.9719 84.6425 70.0639 85.0992 70.0639 85.5842C70.0639 86.0046 70.0039 86.3602 69.8879 86.6512C69.7799 86.9422 69.6159 87.2656 69.3919 87.6212C69.0719 88.0416 68.3999 88.5427 67.3759 89.1247C66.3519 89.7067 65.2359 90.2847 64.0319 90.8546C62.8359 91.4164 61.6839 91.9216 60.5759 92.3742C59.4759 92.8269 58.7039 93.1502 58.2559 93.3442C58.1279 94.0879 57.9879 94.8437 57.8399 95.6076C57.6999 96.3634 57.5999 97.1272 57.5359 97.9032C58.5279 97.3859 59.6479 96.9009 60.8959 96.4482C62.1439 95.9956 63.3279 95.7692 64.4479 95.7692C66.7199 95.7692 67.8559 96.9009 67.8559 99.1642C67.8559 99.7139 67.7479 100.199 67.5359 100.619C67.3319 101.04 67.0599 101.411 66.7199 101.735C66.3879 102.058 66.0039 102.345 65.5679 102.592C65.1399 102.83 64.7199 103.06 64.3039 103.287C63.2799 103.836 62.2079 104.317 61.0879 104.726C59.9679 105.126 58.8479 105.518 57.7279 105.906C57.6639 106.164 57.5999 106.451 57.5359 106.763C57.4719 107.066 57.4399 107.361 57.4399 107.652C57.4399 108.104 57.4719 108.557 57.5359 109.01C57.5999 109.462 57.6639 109.915 57.7279 110.368C58.1119 110.238 58.7239 110.028 59.5679 109.737C60.4199 109.446 61.3119 109.155 62.2399 108.864C63.1679 108.573 64.0639 108.327 64.9279 108.121C65.7919 107.906 66.4319 107.797 66.8479 107.797C67.3279 107.797 67.7759 107.906 68.1919 108.121C68.6079 108.327 68.9599 108.602 69.2479 108.945C69.5359 109.281 69.7639 109.673 69.9359 110.125C70.1159 110.578 70.2079 111.031 70.2079 111.483Z" fill="white"/>
<path d="M93.1517 85.9723C93.1517 86.7806 92.8357 87.5202 92.2077 88.1871C91.5877 88.8459 90.8357 89.4279 89.9517 89.9331C89.0757 90.4302 88.1757 90.8384 87.2477 91.1618C86.3197 91.4851 85.5517 91.7114 84.9437 91.8408C84.6877 94.3304 84.4837 96.8161 84.3357 99.2936C84.1957 101.763 84.1277 104.241 84.1277 106.73C84.1277 108.056 84.1597 109.365 84.2237 110.659C84.2877 111.952 84.3197 113.245 84.3197 114.539C84.3197 115.121 84.2597 115.763 84.1437 116.463C84.0357 117.154 83.8437 117.804 83.5677 118.419C83.2997 119.033 82.9277 119.55 82.4477 119.971C81.9677 120.391 81.3757 120.601 80.6717 120.601C79.8397 120.601 79.1717 120.363 78.6717 119.89C78.1797 119.425 77.7957 118.855 77.5197 118.176C77.2517 117.497 77.0717 116.782 76.9757 116.026C76.8797 115.262 76.8317 114.571 76.8317 113.957C76.7677 112.017 76.7197 110.073 76.6877 108.121C76.6557 106.16 76.6397 104.192 76.6397 102.22C76.6397 100.571 76.6437 98.9541 76.6557 97.3698C76.6757 95.7854 76.6877 94.1688 76.6877 92.5198C76.2397 92.5844 75.7797 92.6329 75.3117 92.6653C74.8517 92.6976 74.3837 92.7138 73.9037 92.7138C73.5197 92.7138 73.0117 92.6774 72.3837 92.6006C71.7637 92.5157 71.1677 92.3702 70.5917 92.1641C70.0157 91.9499 69.5197 91.6589 69.1037 91.2911C68.6877 90.9152 68.4797 90.4343 68.4797 89.8523C68.4797 88.8823 68.8597 88.0376 69.6157 87.3141C70.3637 86.5826 71.3157 85.9521 72.4797 85.4226C73.6517 84.8851 74.9477 84.4324 76.3677 84.0646C77.7957 83.6887 79.2037 83.3977 80.5917 83.1916C81.9877 82.9774 83.2677 82.8198 84.4317 82.7228C85.6037 82.6258 86.5117 82.5773 87.1517 82.5773C87.7597 82.5773 88.4037 82.6056 89.0877 82.6581C89.7797 82.7026 90.4317 82.8359 91.0397 83.0623C91.6477 83.2886 92.1477 83.6281 92.5437 84.0808C92.9477 84.5334 93.1517 85.1639 93.1517 85.9723Z" fill="white"/>
<path d="M111.584 111.483C111.584 112.098 111.424 112.696 111.104 113.278C110.784 113.827 110.032 114.474 108.848 115.218C107.664 115.961 106.352 116.669 104.912 117.336C103.472 117.994 102.08 118.56 100.736 119.033C99.3919 119.494 98.3999 119.728 97.7599 119.728C97.3119 119.728 96.7839 119.619 96.1759 119.405C95.5679 119.199 94.9599 118.936 94.3519 118.613C93.7439 118.289 93.1879 117.918 92.6879 117.497C92.1959 117.077 91.8399 116.673 91.6159 116.285C91.4879 116.058 91.3639 115.606 91.2479 114.927C91.1399 114.248 91.0439 113.456 90.9599 112.55C90.8839 111.645 90.8159 110.687 90.7519 109.673C90.6879 108.65 90.6279 107.68 90.5759 106.763C90.5319 105.837 90.4999 105.017 90.4799 104.305C90.4679 103.594 90.4639 103.077 90.4639 102.753C90.4639 101.557 90.4999 100.183 90.5759 98.6307C90.6599 97.0787 90.8159 95.5227 91.0399 93.9586C91.2639 92.3864 91.5879 90.8829 92.0159 89.4481C92.4519 88.0052 93.0399 86.7806 93.7759 85.7782C93.9999 85.4872 94.4479 85.1801 95.1199 84.8567C95.7919 84.5334 96.5799 84.2262 97.4879 83.9352C98.4039 83.6442 99.3919 83.3694 100.448 83.1107C101.504 82.8521 102.516 82.6379 103.488 82.4641C104.468 82.2822 105.36 82.1367 106.16 82.0276C106.96 81.9104 107.568 81.8497 107.984 81.8497C108.464 81.8497 108.916 81.9589 109.344 82.1731C109.78 82.3792 110.148 82.6581 110.448 83.0137C110.756 83.3694 110.996 83.7695 111.168 84.2101C111.348 84.6425 111.44 85.0992 111.44 85.5842C111.44 86.0046 111.38 86.3602 111.264 86.6512C111.156 86.9422 110.992 87.2656 110.768 87.6212C110.448 88.0416 109.776 88.5427 108.752 89.1247C107.728 89.7067 106.612 90.2847 105.408 90.8546C104.212 91.4164 103.06 91.9216 101.952 92.3742C100.852 92.8269 100.08 93.1502 99.6319 93.3442C99.5039 94.0879 99.3639 94.8437 99.2159 95.6076C99.0759 96.3634 98.9759 97.1272 98.9119 97.9032C99.9039 97.3859 101.024 96.9009 102.272 96.4482C103.52 95.9956 104.704 95.7692 105.824 95.7692C108.096 95.7692 109.232 96.9009 109.232 99.1642C109.232 99.7139 109.124 100.199 108.912 100.619C108.708 101.04 108.436 101.411 108.096 101.735C107.764 102.058 107.38 102.345 106.944 102.592C106.516 102.83 106.096 103.06 105.68 103.287C104.656 103.836 103.584 104.317 102.464 104.726C101.344 105.126 100.224 105.518 99.1039 105.906C99.0399 106.164 98.9759 106.451 98.9119 106.763C98.8479 107.066 98.8159 107.361 98.8159 107.652C98.8159 108.104 98.8479 108.557 98.9119 109.01C98.9759 109.462 99.0399 109.915 99.1039 110.368C99.4879 110.238 100.1 110.028 100.944 109.737C101.796 109.446 102.688 109.155 103.616 108.864C104.544 108.573 105.44 108.327 106.304 108.121C107.168 107.906 107.808 107.797 108.224 107.797C108.704 107.797 109.152 107.906 109.568 108.121C109.984 108.327 110.336 108.602 110.624 108.945C110.912 109.281 111.14 109.673 111.312 110.125C111.492 110.578 111.584 111.031 111.584 111.483Z" fill="white"/>
<path d="M133.904 86.9908C133.904 87.1524 133.748 87.6213 133.44 88.3973C133.14 89.1733 132.736 90.1271 132.224 91.2588C131.712 92.3904 131.124 93.6636 130.464 95.0741C129.812 96.4766 129.136 97.9154 128.432 99.3906C127.728 100.858 127.04 102.301 126.368 103.723C125.696 105.146 125.076 106.435 124.512 107.587C123.956 108.731 123.488 109.701 123.104 110.497C122.72 111.285 122.48 111.774 122.384 111.968C123.376 111.645 124.388 111.382 125.424 111.176C126.468 110.962 127.52 110.853 128.576 110.853C129.088 110.853 129.632 110.897 130.208 110.982C130.784 111.059 131.316 111.221 131.808 111.467C132.308 111.706 132.724 112.029 133.056 112.437C133.396 112.837 133.568 113.375 133.568 114.054C133.568 114.765 133.328 115.408 132.848 115.978C132.368 116.539 131.748 117.028 130.992 117.449C130.244 117.869 129.392 118.225 128.432 118.516C127.472 118.807 126.512 119.049 125.552 119.243C124.592 119.437 123.68 119.571 122.816 119.647C121.952 119.732 121.232 119.777 120.656 119.777C119.92 119.777 119.108 119.744 118.224 119.68C117.348 119.615 116.512 119.437 115.712 119.146C114.912 118.855 114.244 118.431 113.712 117.869C113.188 117.299 112.928 116.495 112.928 115.46C112.928 114.749 113.124 113.791 113.52 112.583C113.924 111.366 114.4 110.121 114.944 108.848C115.488 107.567 116.052 106.338 116.64 105.162C117.236 103.978 117.712 103.044 118.064 102.365C119.152 100.328 120.244 98.3034 121.344 96.2866C122.452 94.2617 123.536 92.2126 124.592 90.1433C123.472 90.7899 122.192 91.3841 120.752 91.9216C119.312 92.4511 117.952 92.7138 116.672 92.7138C116.224 92.7138 115.748 92.6491 115.248 92.5198C114.756 92.3904 114.308 92.2086 113.904 91.9701C113.508 91.7236 113.184 91.4043 112.928 91.0163C112.672 90.6283 112.544 90.1756 112.544 89.6583C112.544 88.8176 112.816 88.0416 113.36 87.3303C113.904 86.6189 114.612 85.9723 115.488 85.3903C116.372 84.8083 117.364 84.2909 118.464 83.8383C119.572 83.3856 120.688 83.0138 121.808 82.7228C122.928 82.4318 123.988 82.2054 124.992 82.0438C126.004 81.8821 126.864 81.8013 127.568 81.8013C129.424 81.8013 130.944 82.1731 132.128 82.9168C133.312 83.6604 133.904 85.0184 133.904 86.9908Z" fill="white"/>
<path d="M5.58 131.752L6.38 133.583H7.268L4.064 126.34H3.216L0 133.583H0.872001L1.668 131.752H5.58ZM5.232 130.956H2.016L3.616 127.282L5.232 130.956Z" fill="white"/>
<path d="M14.2078 133.583H15.1398L13.4638 131.122C14.4958 130.778 15.0678 129.974 15.0678 128.773C15.0678 127.234 14.0358 126.34 12.2438 126.34H9.51978V133.583H10.3398V131.295H12.2438C12.4078 131.295 12.5718 131.287 12.7238 131.275L14.2078 133.583ZM10.3398 130.499V127.141H12.2438C13.5438 127.141 14.2798 127.698 14.2798 128.794C14.2798 129.921 13.5438 130.499 12.2438 130.499H10.3398Z" fill="white"/>
<path d="M22.5747 127.141V126.34H17.0747V127.141H19.4107V133.583H20.2267V127.141H22.5747Z" fill="white"/>
<path d="M25.705 133.583V126.34H24.885V133.583H25.705Z" fill="white"/>
<path d="M33.9962 130.047V132.229C33.4442 132.609 32.7602 132.839 32.1122 132.839C30.4762 132.839 29.1562 131.566 29.1562 129.962C29.1562 128.369 30.4642 127.096 32.1042 127.096C32.9002 127.096 33.6882 127.407 34.2722 127.937L34.7442 127.314C34.0602 126.704 33.0962 126.32 32.1042 126.32C29.9962 126.32 28.3242 127.925 28.3242 129.962C28.3242 131.999 29.9842 133.623 32.0642 133.623C33.0242 133.623 34.0162 133.244 34.7242 132.674V130.047H33.9962Z" fill="white"/>
<path d="M40.9182 126.32C38.8182 126.32 37.1582 127.913 37.1582 129.962C37.1582 131.999 38.8182 133.623 40.9182 133.623C43.0062 133.623 44.6622 131.999 44.6622 129.962C44.6622 127.925 43.0062 126.32 40.9182 126.32ZM40.9182 127.108C42.5142 127.108 43.8262 128.369 43.8262 129.962C43.8262 131.554 42.5142 132.827 40.9182 132.827C39.3182 132.827 37.9902 131.554 37.9902 129.962C37.9902 128.369 39.3182 127.108 40.9182 127.108Z" fill="white"/>
<path d="M49.4146 126.312C47.9306 126.312 46.9346 127.044 46.9346 128.183C46.9346 130.778 50.9706 129.768 50.9586 131.671C50.9586 132.362 50.3146 132.787 49.2786 132.787C48.4706 132.787 47.5586 132.415 46.8946 131.764L46.5266 132.508C47.2026 133.159 48.2266 133.615 49.2706 133.615C50.8066 133.615 51.8586 132.839 51.8586 131.627C51.8706 129 47.8346 129.974 47.8346 128.111C47.8346 127.5 48.4386 127.149 49.3626 127.149C49.9346 127.149 50.6946 127.326 51.3386 127.759L51.6866 126.983C51.0906 126.579 50.2426 126.312 49.4146 126.312Z" fill="white"/>
<path d="M58.5942 126.34V133.583H59.4142V131.295H61.2862C63.0582 131.295 64.0822 130.378 64.0822 128.773C64.0822 127.234 63.0582 126.34 61.2862 126.34H58.5942ZM59.4142 127.141H61.2582C62.5462 127.141 63.2942 127.698 63.2942 128.794C63.2942 129.921 62.5462 130.499 61.2582 130.499H59.4142V127.141Z" fill="white"/>
<path d="M71.1044 131.752L71.9044 133.583H72.7924L69.5884 126.34H68.7404L65.5244 133.583H66.3964L67.1924 131.752H71.1044ZM70.7564 130.956H67.5404L69.1404 127.282L70.7564 130.956Z" fill="white"/>
<path d="M79.7322 133.583H80.6642L78.9882 131.122C80.0202 130.778 80.5922 129.974 80.5922 128.773C80.5922 127.234 79.5602 126.34 77.7682 126.34H75.0442V133.583H75.8642V131.295H77.7682C77.9322 131.295 78.0962 131.287 78.2482 131.275L79.7322 133.583ZM75.8642 130.499V127.141H77.7682C79.0682 127.141 79.8042 127.698 79.8042 128.794C79.8042 129.921 79.0682 130.499 77.7682 130.499H75.8642Z" fill="white"/>
<path d="M88.1071 131.752L88.9071 133.583H89.7951L86.5911 126.34H85.7431L82.5271 133.583H83.3991L84.1951 131.752H88.1071ZM87.7591 130.956H84.5431L86.1431 127.282L87.7591 130.956Z" fill="white"/>
<path d="M99.062 126.32C96.962 126.32 95.302 127.913 95.302 129.962C95.302 131.999 96.962 133.623 99.062 133.623C101.15 133.623 102.806 131.999 102.806 129.962C102.806 127.925 101.15 126.32 99.062 126.32ZM99.062 127.108C100.658 127.108 101.97 128.369 101.97 129.962C101.97 131.554 100.658 132.827 99.062 132.827C97.462 132.827 96.134 131.554 96.134 129.962C96.134 128.369 97.462 127.108 99.062 127.108Z" fill="white"/>
<path d="M111.489 126.312C110.005 126.312 109.009 127.044 109.009 128.183C109.009 130.778 113.045 129.768 113.033 131.671C113.033 132.362 112.389 132.787 111.353 132.787C110.545 132.787 109.633 132.415 108.969 131.764L108.601 132.508C109.277 133.159 110.301 133.615 111.345 133.615C112.881 133.615 113.933 132.839 113.933 131.627C113.945 129 109.909 129.974 109.909 128.111C109.909 127.5 110.513 127.149 111.437 127.149C112.009 127.149 112.769 127.326 113.413 127.759L113.761 126.983C113.165 126.579 112.317 126.312 111.489 126.312Z" fill="white"/>
<path d="M121.602 127.141V126.34H116.738V133.583H121.734V132.795H117.558V130.313H121.17V129.517H117.558V127.141H121.602Z" fill="white"/>
<path d="M130.384 126.34H129.564V130.604C129.564 132.011 128.748 132.827 127.384 132.827C126.024 132.827 125.184 132.011 125.184 130.604V126.34H124.364V130.604C124.364 132.488 125.5 133.623 127.384 133.623C129.26 133.623 130.384 132.488 130.384 130.604V126.34Z" fill="white"/>
<path d="M137.447 126.34V133.583H138.267V131.295H140.139C141.911 131.295 142.935 130.378 142.935 128.773C142.935 127.234 141.911 126.34 140.139 126.34H137.447ZM138.267 127.141H140.111C141.399 127.141 142.147 127.698 142.147 128.794C142.147 129.921 141.399 130.499 140.111 130.499H138.267V127.141Z" fill="white"/>
<path d="M150.285 127.141V126.34H145.421V133.583H150.417V132.795H146.241V130.313H149.853V129.517H146.241V127.141H150.285Z" fill="white"/>
<path d="M157.739 127.141V126.34H152.239V127.141H154.575V133.583H155.391V127.141H157.739Z" fill="white"/>
<path d="M90.7329 76.0173C97.7689 75.5 110.177 70.4762 99.7409 51.9613C89.8609 34.4285 81.4449 33.2241 81.4449 33.2241C79.7049 32.6138 77.7249 33.2241 77.7249 33.2241C77.7249 33.2241 71.1329 33.988 59.4289 51.9613C47.1489 70.8116 62.1449 75.0109 69.3009 75.8556C70.7089 76.0254 75.0409 75.6859 75.0409 75.6859C75.0409 75.6859 79.3009 74.6229 85.0169 75.6859L90.7329 76.0173Z" fill="white"/>
<path d="M56.2328 29.4655C56.2328 29.4655 68.2208 39.3716 58.4408 47.0427C48.6607 54.7138 41.7207 40.3618 42.6647 32.6746C43.6127 24.9873 47.9767 21.7055 56.2328 29.4655Z" fill="white"/>
<path d="M75.2567 10.8656C75.2567 10.8656 84.9887 26.8666 70.9367 31.66C56.8807 36.4494 54.5927 17.4293 58.6487 9.09941C62.7007 0.773577 68.9247 -1.21088 75.2567 10.8656Z" fill="white"/>
<path d="M84.3087 10.8656C84.3087 10.8656 74.5767 26.8666 88.6327 31.66C102.685 36.4494 104.977 17.4293 100.921 9.09941C96.8647 0.773577 90.6447 -1.21088 84.3087 10.8656Z" fill="white"/>
<path d="M103.541 29.4655C103.541 29.4655 91.5527 39.3716 101.333 47.0427C111.109 54.7138 118.053 40.3618 117.105 32.6746C116.157 24.9873 111.793 21.7055 103.541 29.4655Z" fill="white"/>
<path d="M54.2608 28.5278C57.1208 30.9043 59.9768 34.6064 60.0728 38.4864C60.1568 41.9016 57.4928 44.6257 54.6888 46.1009C52.2648 47.3821 49.5688 47.0709 47.4448 45.3573C45.3368 43.6557 43.9448 41.1135 43.0528 38.5794C42.1728 36.0897 41.7208 33.3818 42.1128 30.7466C42.4488 28.4793 43.2448 25.2864 45.7008 24.4861C46.8768 24.1021 48.1768 24.4538 49.2688 24.9388C51.1408 25.7794 52.7648 27.1374 54.2608 28.5278C55.0128 29.231 56.1408 28.0953 55.3848 27.388C52.9928 25.157 49.6728 22.344 46.1568 22.7563C43.4008 23.0836 41.8608 25.5248 41.0888 28.0024C39.3528 33.6001 40.9968 40.0667 44.5048 44.6176C46.1448 46.7436 48.4688 48.34 51.1728 48.5219C54.4048 48.7401 57.5968 46.5859 59.5808 44.1771C61.5328 41.8168 62.0928 38.8259 61.2648 35.8836C60.5728 33.4303 59.0568 31.2478 57.3928 29.3725C56.7688 28.6692 56.1048 27.9862 55.3848 27.3921C54.5968 26.7373 53.4648 27.869 54.2608 28.5278Z" fill="white"/>
<path d="M73.1608 9.77032C74.7168 12.3327 75.7888 15.3438 76.2088 18.3104C76.5368 20.5777 76.3048 22.9785 75.1728 24.9912C73.6888 27.6183 70.8048 29.045 68.0168 29.7604C56.4328 32.723 54.3968 16.3057 57.6608 8.58207C58.8048 5.87416 61.0408 2.00224 64.2888 1.65465C65.8488 1.4849 67.2888 2.27303 68.4448 3.26324C70.4808 5.0052 71.9168 7.41807 73.1608 9.77032C73.6488 10.6878 75.0208 9.87137 74.5368 8.95391C72.8608 5.78928 70.6608 2.13561 67.2808 0.603821C64.8688 -0.491471 62.4368 0.130945 60.4448 1.77186C58.2888 3.55424 56.7448 6.33086 55.8208 8.95391C54.9928 11.3102 54.6688 13.8726 54.6488 16.3663C54.6048 21.2365 55.8608 26.8262 59.8488 29.9382C64.2928 33.41 71.5008 31.4417 75.1488 27.6709C79.9808 22.6713 77.7448 14.2485 74.5368 8.95391C74.0008 8.07282 72.6248 8.88116 73.1608 9.77032Z" fill="white"/>
<path d="M82.2169 8.95397C80.6409 11.5487 79.5209 14.6083 79.0449 17.6072C78.6649 20.0079 78.7409 22.5016 79.6969 24.7609C80.8129 27.4082 83.0529 29.2634 85.6209 30.3869C88.2529 31.5388 91.2609 32.1451 94.0769 31.3569C96.3529 30.7224 98.1729 29.1057 99.4489 27.1334C102.209 22.8573 102.549 17.0616 101.733 12.1509C101.377 9.99268 100.661 7.97185 99.6169 6.06014C98.4569 3.93422 96.8689 1.78001 94.6729 0.672592C89.0009 -2.18487 84.4529 4.72639 82.2169 8.95397C81.7289 9.87143 83.1049 10.6878 83.5889 9.77039C85.1649 6.79168 87.3489 2.89147 90.7769 1.82043C93.2369 1.05251 95.3409 2.78234 96.7889 4.61322C100.077 8.77209 100.945 14.3456 100.333 19.5189C99.7969 24.0536 97.6049 29.1785 92.6849 30.0191C89.8329 30.5082 86.5889 29.3806 84.2369 27.8084C82.1689 26.4342 80.8289 24.2274 80.5089 21.7499C79.9809 17.7001 81.5049 13.2018 83.5889 9.77039C84.1289 8.88122 82.7489 8.07289 82.2169 8.95397Z" fill="white"/>
<path d="M101.569 27.388C98.5969 29.8534 95.8409 33.5839 95.3609 37.5164C94.9569 40.8144 96.5329 43.7042 98.9729 45.7897C101.297 47.7822 104.277 49.0675 107.337 48.2753C109.981 47.5923 112.021 45.4421 113.457 43.1909C115.021 40.7376 116.017 37.8397 116.409 34.954C117.041 30.302 115.549 21.859 109.261 22.7966C106.289 23.2412 103.709 25.3954 101.569 27.388C100.813 28.0953 101.941 29.231 102.693 28.5277C104.829 26.5392 108.305 23.415 111.505 24.575C113.981 25.4722 114.701 29.1865 114.933 31.4579C115.213 34.2063 114.541 37.0476 113.525 39.5817C112.513 42.1037 110.877 44.6216 108.525 46.0362C106.125 47.4751 103.469 46.9456 101.217 45.4866C98.5889 43.781 96.6409 41.1014 96.9169 37.8397C97.2169 34.2386 100.017 30.7466 102.693 28.5277C103.489 27.8689 102.357 26.7373 101.569 27.388Z" fill="white"/>
<path d="M100.753 53.8892C100.549 53.4406 100.321 53.0041 100.093 52.5636C99.8929 52.1756 99.3649 52.0624 99.0049 52.2766C98.6169 52.507 98.5169 52.9879 98.7169 53.38C98.9449 53.8165 99.1769 54.253 99.3769 54.7056C99.5569 55.1058 100.121 55.1987 100.465 54.9966C100.869 54.7541 100.929 54.2934 100.753 53.8892Z" fill="white"/>
<path d="M99.0207 50.5265C95.5207 44.3468 91.2687 38.1631 85.4607 33.988C83.3247 32.4562 80.6727 31.0497 77.9767 31.1265C77.3567 31.1467 76.7167 31.2478 76.1167 31.4175C76.5287 31.2963 76.1767 31.4054 76.0327 31.4337C75.8327 31.4701 75.6367 31.5347 75.4447 31.5994C74.3607 31.9793 73.3567 32.5654 72.4087 33.208C67.4847 36.5505 63.6287 41.5177 60.1927 46.3272C57.6127 49.9284 55.0807 53.6669 53.5767 57.8783C52.6367 60.5095 52.2007 63.4195 52.9087 66.1597C54.0447 70.5732 58.1287 73.1194 62.1607 74.433C63.9887 75.0312 65.8887 75.3909 67.7967 75.6253C69.1487 75.791 70.5607 75.6576 71.9167 75.5808C72.6207 75.5404 73.3527 75.5404 74.0447 75.3909C75.2207 75.1403 76.4287 75.0473 77.6287 75.0069C78.6367 74.9705 79.6447 75.0029 80.6527 75.0756C81.6567 75.1484 82.6567 75.4111 83.6607 75.4677C85.5487 75.5768 87.4327 75.6859 89.3207 75.795C90.1367 75.8435 91.0567 75.6091 91.8567 75.4515C92.8287 75.2656 93.7887 74.9948 94.7207 74.6512C96.6767 73.9399 98.5047 72.8769 99.9887 71.3937C104.033 67.352 103.557 61.3218 101.741 56.3263C101.389 55.3604 99.8527 55.7767 100.205 56.7547C101.369 59.9517 102.097 63.4841 101.009 66.8104C100.245 69.1384 98.4767 70.9208 96.4127 72.1131C94.5087 73.2124 92.3167 73.8429 90.1487 74.1016C88.2127 74.34 86.1647 74.0005 84.2247 73.8874C82.6687 73.7985 81.1367 73.4711 79.5727 73.4024C77.8967 73.3256 76.2167 73.4307 74.5567 73.6691C74.2127 73.7217 73.8687 73.7823 73.5247 73.855C73.2847 73.9116 73.6487 73.851 73.6007 73.855C73.4287 73.8672 73.2567 73.8793 73.0807 73.8914C71.6687 73.9884 70.2487 74.0773 68.8327 74.0692C66.9887 74.0612 65.0807 73.6085 63.2927 73.0952C61.3087 72.5213 59.3887 71.6927 57.7207 70.452C56.0687 69.2233 54.8647 67.4854 54.3767 65.4686C53.6967 62.6717 54.5047 59.6526 55.5847 57.074C57.3527 52.8545 60.1247 49.0432 62.8327 45.4017C64.8847 42.6412 67.1087 39.9899 69.5847 37.6094C70.9767 36.2716 72.4607 35.0187 74.1127 34.0244C74.5807 33.7415 75.0607 33.4869 75.5647 33.2686C75.3527 33.3616 75.8007 33.1797 75.9007 33.1433C76.0207 33.1029 76.1487 33.0625 76.2727 33.0302C76.7847 32.8927 76.0207 33.1191 76.5847 32.9574C77.7207 32.6341 78.7447 32.7755 79.8807 32.9857C80.1247 33.0302 80.3687 33.107 80.6087 33.1837C81.2127 33.3818 81.4367 33.4909 81.9767 33.7536C84.4207 34.954 86.5447 36.7525 88.4607 38.6804C92.1407 42.3826 95.0727 46.8001 97.6447 51.343C98.1567 52.2442 99.5327 51.4278 99.0207 50.5265Z" fill="white"/>
</svg>
