<svg width="78" height="77" viewBox="0 0 78 77" fill="none" xmlns="http://www.w3.org/2000/svg">
<path d="M16.2328 29.4655C16.2328 29.4655 28.2208 39.3716 18.4408 47.0427C8.66075 54.7138 1.72074 40.3618 2.66475 32.6746C3.61275 24.9873 7.97675 21.7055 16.2328 29.4655Z" fill="white"/>
<path d="M35.2567 10.8656C35.2567 10.8656 44.9887 26.8666 30.9367 31.66C16.8807 36.4494 14.5927 17.4293 18.6487 9.09941C22.7007 0.773577 28.9247 -1.21088 35.2567 10.8656Z" fill="white"/>
<path d="M44.3087 10.8656C44.3087 10.8656 34.5767 26.8666 48.6327 31.66C62.6847 36.4494 64.9767 17.4293 60.9207 9.09941C56.8647 0.773577 50.6447 -1.21088 44.3087 10.8656Z" fill="white"/>
<path d="M63.5407 29.4655C63.5407 29.4655 51.5527 39.3716 61.3327 47.0427C71.1087 54.7138 78.0527 40.3618 77.1047 32.6746C76.1567 24.9873 71.7927 21.7055 63.5407 29.4655Z" fill="white"/>
<path d="M50.7329 76.0173C57.7689 75.5 70.1769 70.4762 59.7409 51.9613C49.8609 34.4285 41.4449 33.2241 41.4449 33.2241C39.7049 32.6138 37.7249 33.2241 37.7249 33.2241C37.7249 33.2241 31.1329 33.988 19.4289 51.9613C7.14886 70.8116 22.1449 75.0109 29.3009 75.8556C30.7089 76.0254 35.0409 75.6859 35.0409 75.6859C35.0409 75.6859 39.3009 74.6229 45.0169 75.6859L50.7329 76.0173Z" fill="white"/>
<path d="M14.2608 28.5278C17.1208 30.9043 19.9768 34.6064 20.0728 38.4864C20.1568 41.9016 17.4928 44.6257 14.6888 46.1009C12.2648 47.3821 9.56875 47.0709 7.44475 45.3573C5.33675 43.6557 3.94475 41.1135 3.05275 38.5794C2.17275 36.0897 1.72075 33.3818 2.11275 30.7466C2.44875 28.4793 3.24475 25.2864 5.70075 24.4861C6.87675 24.1021 8.17675 24.4538 9.26875 24.9388C11.1408 25.7794 12.7648 27.1374 14.2608 28.5278C15.0128 29.231 16.1408 28.0953 15.3848 27.388C12.9928 25.157 9.67275 22.344 6.15675 22.7563C3.40075 23.0836 1.86075 25.5248 1.08875 28.0024C-0.647246 33.6001 0.996754 40.0667 4.50475 44.6176C6.14475 46.7436 8.46875 48.34 11.1728 48.5219C14.4048 48.7401 17.5968 46.5859 19.5808 44.1771C21.5328 41.8168 22.0928 38.8259 21.2648 35.8836C20.5728 33.4303 19.0568 31.2478 17.3928 29.3725C16.7688 28.6692 16.1048 27.9862 15.3848 27.3921C14.5968 26.7373 13.4648 27.869 14.2608 28.5278Z" fill="white"/>
<path d="M33.1608 9.77032C34.7168 12.3327 35.7888 15.3438 36.2088 18.3104C36.5368 20.5777 36.3048 22.9785 35.1728 24.9912C33.6888 27.6183 30.8048 29.045 28.0168 29.7604C16.4328 32.723 14.3968 16.3057 17.6608 8.58207C18.8048 5.87416 21.0408 2.00224 24.2888 1.65465C25.8488 1.4849 27.2888 2.27303 28.4448 3.26324C30.4808 5.0052 31.9168 7.41807 33.1608 9.77032C33.6488 10.6878 35.0208 9.87137 34.5368 8.95391C32.8608 5.78928 30.6608 2.13561 27.2808 0.603821C24.8688 -0.491471 22.4368 0.130945 20.4448 1.77186C18.2888 3.55424 16.7448 6.33086 15.8208 8.95391C14.9928 11.3102 14.6688 13.8726 14.6488 16.3663C14.6048 21.2365 15.8608 26.8262 19.8488 29.9382C24.2928 33.41 31.5008 31.4417 35.1488 27.6709C39.9808 22.6713 37.7448 14.2485 34.5368 8.95391C34.0008 8.07282 32.6248 8.88116 33.1608 9.77032Z" fill="white"/>
<path d="M42.2169 8.95397C40.6409 11.5487 39.5209 14.6083 39.0449 17.6072C38.6649 20.0079 38.7409 22.5016 39.6969 24.7609C40.8129 27.4082 43.0529 29.2634 45.6209 30.3869C48.2529 31.5388 51.2609 32.1451 54.0769 31.3569C56.3529 30.7224 58.1729 29.1057 59.4489 27.1334C62.2089 22.8573 62.5489 17.0616 61.7329 12.1509C61.3769 9.99268 60.6609 7.97185 59.6169 6.06014C58.4569 3.93422 56.8689 1.78001 54.6729 0.672592C49.0009 -2.18487 44.4529 4.72639 42.2169 8.95397C41.7289 9.87143 43.1049 10.6878 43.5889 9.77039C45.1649 6.79168 47.3489 2.89147 50.7769 1.82043C53.2369 1.05251 55.3409 2.78234 56.7889 4.61322C60.0769 8.77209 60.9449 14.3456 60.3329 19.5189C59.7969 24.0536 57.6049 29.1785 52.6849 30.0191C49.8329 30.5082 46.5889 29.3806 44.2369 27.8084C42.1689 26.4342 40.8289 24.2274 40.5089 21.7499C39.9809 17.7001 41.5049 13.2018 43.5889 9.77039C44.1289 8.88122 42.7489 8.07289 42.2169 8.95397Z" fill="white"/>
<path d="M61.5689 27.388C58.5969 29.8534 55.8409 33.5839 55.3609 37.5164C54.9569 40.8144 56.5329 43.7042 58.9729 45.7897C61.2969 47.7822 64.2769 49.0675 67.3369 48.2753C69.9809 47.5923 72.0209 45.4421 73.4569 43.1909C75.0209 40.7376 76.0169 37.8397 76.4089 34.954C77.0409 30.302 75.5489 21.859 69.2609 22.7966C66.2889 23.2412 63.7089 25.3954 61.5689 27.388C60.8129 28.0953 61.9409 29.231 62.6929 28.5277C64.8289 26.5392 68.3049 23.415 71.5049 24.575C73.9809 25.4722 74.7009 29.1865 74.9329 31.4579C75.2129 34.2063 74.5409 37.0476 73.5249 39.5817C72.5129 42.1037 70.8769 44.6216 68.5249 46.0362C66.1249 47.4751 63.4689 46.9456 61.2169 45.4866C58.5889 43.781 56.6409 41.1014 56.9169 37.8397C57.2169 34.2386 60.0169 30.7466 62.6929 28.5277C63.4889 27.8689 62.3569 26.7373 61.5689 27.388Z" fill="white"/>
<path d="M59.0207 50.5265C55.5207 44.3468 51.2687 38.1631 45.4607 33.988C43.3247 32.4562 40.6727 31.0497 37.9767 31.1265C37.3567 31.1467 36.7167 31.2478 36.1167 31.4175C36.5287 31.2963 36.1767 31.4054 36.0327 31.4337C35.8327 31.4701 35.6367 31.5347 35.4447 31.5994C34.3607 31.9793 33.3567 32.5654 32.4087 33.208C27.4847 36.5505 23.6287 41.5177 20.1927 46.3272C17.6127 49.9284 15.0807 53.6669 13.5767 57.8783C12.6367 60.5095 12.2007 63.4195 12.9087 66.1597C14.0447 70.5732 18.1287 73.1194 22.1607 74.433C23.9887 75.0312 25.8887 75.3909 27.7967 75.6253C29.1487 75.791 30.5607 75.6576 31.9167 75.5808C32.6207 75.5404 33.3527 75.5404 34.0447 75.3909C35.2207 75.1403 36.4287 75.0473 37.6287 75.0069C38.6367 74.9705 39.6447 75.0029 40.6527 75.0756C41.6567 75.1484 42.6567 75.4111 43.6607 75.4677C45.5487 75.5768 47.4327 75.6859 49.3207 75.795C50.1367 75.8435 51.0567 75.6091 51.8567 75.4515C52.8287 75.2656 53.7887 74.9948 54.7207 74.6512C56.6767 73.9399 58.5047 72.8769 59.9887 71.3937C64.0327 67.352 63.5567 61.3218 61.7407 56.3263C61.3887 55.3604 59.8527 55.7767 60.2047 56.7547C61.3687 59.9517 62.0967 63.4841 61.0087 66.8104C60.2447 69.1384 58.4767 70.9208 56.4127 72.1131C54.5087 73.2124 52.3167 73.8429 50.1487 74.1016C48.2127 74.34 46.1647 74.0005 44.2247 73.8874C42.6687 73.7985 41.1367 73.4711 39.5727 73.4024C37.8967 73.3256 36.2167 73.4307 34.5567 73.6691C34.2127 73.7217 33.8687 73.7823 33.5247 73.855C33.2847 73.9116 33.6487 73.851 33.6007 73.855C33.4287 73.8672 33.2567 73.8793 33.0807 73.8914C31.6687 73.9884 30.2487 74.0773 28.8327 74.0692C26.9887 74.0612 25.0807 73.6085 23.2927 73.0952C21.3087 72.5213 19.3887 71.6927 17.7207 70.452C16.0687 69.2233 14.8647 67.4854 14.3767 65.4686C13.6967 62.6717 14.5047 59.6526 15.5847 57.074C17.3527 52.8545 20.1247 49.0432 22.8327 45.4017C24.8847 42.6412 27.1087 39.9899 29.5847 37.6094C30.9767 36.2716 32.4607 35.0187 34.1127 34.0244C34.5807 33.7415 35.0607 33.4869 35.5647 33.2686C35.3527 33.3616 35.8007 33.1797 35.9007 33.1433C36.0207 33.1029 36.1487 33.0625 36.2727 33.0302C36.7847 32.8927 36.0207 33.1191 36.5847 32.9574C37.7207 32.6341 38.7447 32.7755 39.8807 32.9857C40.1247 33.0302 40.3687 33.107 40.6087 33.1837C41.2127 33.3818 41.4367 33.4909 41.9767 33.7536C44.4207 34.954 46.5447 36.7525 48.4607 38.6804C52.1407 42.3826 55.0727 46.8001 57.6447 51.343C58.1567 52.2442 59.5327 51.4278 59.0207 50.5265Z" fill="white"/>
</svg>
